<?xml version="1.0" encoding="UTF-8"?>
<svg xmlns="http://www.w3.org/2000/svg" xmlns:xlink="http://www.w3.org/1999/xlink" width="256px" height="256px" viewBox="0 0 256 256" version="1.1">
<g id="surface1">
<path style=" stroke:none;fill-rule:nonzero;fill:rgb(100%,100%,100%);fill-opacity:1;" d="M 128 56 L 128 32 L 130.601562 32 C 155.933594 32.535156 177.667969 41.867188 195.800781 60 L 196 60.199219 C 214.667969 78.867188 224 101.464844 224 128 C 224 154.535156 214.601562 177.132812 195.800781 195.800781 C 177.132812 214.601562 154.535156 224 128 224 C 101.464844 224 78.867188 214.667969 60.199219 196 L 60 195.800781 C 41.332031 177.132812 32 154.535156 32 128 C 32 101.464844 41.332031 78.800781 60 60 L 77 77 C 63 91.132812 56 108.132812 56 128 C 56 147.867188 63 164.800781 77 178.800781 L 77.199219 179 C 91.199219 193 108.132812 200 128 200 C 147.867188 200 164.800781 193 178.800781 179 L 179 179 L 179 178.800781 C 193 164.800781 200 147.867188 200 128 C 200 108.132812 193 91.199219 179 77.199219 L 178.800781 77 C 164.800781 63 147.867188 56 128 56 "/>
<path style=" stroke:none;fill-rule:nonzero;fill:rgb(0%,0%,0%);fill-opacity:0.498039;" d="M 128 56 C 108.132812 56 91.132812 63 77 77 L 60 60 C 78.265625 41.867188 100.132812 32.535156 125.601562 32 L 128 32 L 128 56 "/>
</g>
</svg>
